<svg xmlns="http://www.w3.org/2000/svg" viewBox="0 0 100 100">
  <!-- Circular outline -->
  <circle cx="50" cy="50" r="45" fill="none" stroke="#4da6ff" stroke-width="2" opacity="0.8"/>
  
  <!-- Microscope base -->
  <path d="M30 75 L70 75 L65 65 L35 65 Z" fill="none" stroke="#4da6ff" stroke-width="2"/>
  
  <!-- Microscope stand -->
  <path d="M50 65 L50 55" fill="none" stroke="#4da6ff" stroke-width="2"/>
  
  <!-- Microscope arm -->
  <path d="M40 55 L60 55 L60 45 L40 45 Z" fill="none" stroke="#4da6ff" stroke-width="2"/>
  
  <!-- Microscope tube -->
  <path d="M45 45 L45 30 L55 30 L55 45" fill="none" stroke="#4da6ff" stroke-width="2"/>
  
  <!-- Lens -->
  <circle cx="50" cy="30" r="5" fill="none" stroke="#4da6ff" stroke-width="2"/>
  
  <!-- Sample slide -->
  <rect x="40" y="50" width="20" height="3" fill="none" stroke="#00ccff" stroke-width="2"/>
  
  <!-- Light beam effect -->
  <path d="M48 30 L45 20 M50 28 L50 18 M52 30 L55 20" fill="none" stroke="#00ccff" stroke-width="1" opacity="0.7"/>
  
  <!-- DNA helix (simplified) -->
  <path d="M75 30 C80 35, 70 40, 75 45 C80 50, 70 55, 75 60" fill="none" stroke="#4da6ff" stroke-width="1.5" opacity="0.7"/>
  <path d="M75 30 C70 35, 80 40, 75 45 C70 50, 80 55, 75 60" fill="none" stroke="#00ccff" stroke-width="1.5" opacity="0.7"/>
  
  <!-- Molecule structure (simplified) -->
  <circle cx="25" cy="35" r="2" fill="none" stroke="#00ccff" stroke-width="1"/>
  <circle cx="20" cy="40" r="2" fill="none" stroke="#00ccff" stroke-width="1"/>
  <circle cx="25" cy="45" r="2" fill="none" stroke="#00ccff" stroke-width="1"/>
  <circle cx="30" cy="40" r="2" fill="none" stroke="#00ccff" stroke-width="1"/>
  
  <line x1="25" y1="35" x2="20" y2="40" stroke="#00ccff" stroke-width="1"/>
  <line x1="20" y1="40" x2="25" y2="45" stroke="#00ccff" stroke-width="1"/>
  <line x1="25" y1="45" x2="30" y2="40" stroke="#00ccff" stroke-width="1"/>
  <line x1="30" y1="40" x2="25" y2="35" stroke="#00ccff" stroke-width="1"/>
</svg>
