<?xml version="1.0" encoding="utf-8"?>
<!-- Generator: Adobe Illustrator 26.0.0, SVG Export Plug-In . SVG Version: 6.00 Build 0)  -->
<svg version="1.1" id="Layer_1" xmlns="http://www.w3.org/2000/svg" xmlns:xlink="http://www.w3.org/1999/xlink" x="0px" y="0px"
	 viewBox="0 0 400 88" style="enable-background:new 0 0 400 88;" xml:space="preserve">
<style type="text/css">
	.st0{fill:#FFFFFF;}
</style>
<g>
	<path class="st0" d="M189.1,3.4V86h14.4l0.2-0.4l2.1-5.8c3.9,3.8,8.4,7.1,16.8,7.1c9.9,0,17.6-2.9,22.9-8.8
		c5.4-5.9,8.1-13.6,8.1-23.1c0-9.8-2.8-17.6-8.5-23.3c-5.7-5.8-13.2-8.7-22.5-8.7c-6.2-0.2-12,2.1-16.4,6.5V3.4H189.1z M209.5,42.7
		c3-3.4,7.4-5.3,11.9-5.1c5.1,0,8.8,1.7,11.2,5c2.5,3.6,3.9,8,3.7,12.5c0.1,4.5-1.3,8.9-3.9,12.5c-2.5,3.3-6.2,5-11.1,5
		c-5.2,0-9.2-1.7-12.1-5.1c-2.9-3.4-4.5-7.9-4.4-12.4C204.8,50.5,206.5,46.1,209.5,42.7z"/>
	<path class="st0" d="M290.1,23.2c-9.4,0-17.2,3.1-23.3,9.4c-6,6-9.3,14.2-9.2,22.7c-0.1,8.4,3.2,16.6,9.2,22.6
		c6.1,6.2,14,9.4,23.3,9.4c9.4,0,17.2-3.1,23.3-9.4c6-6,9.3-14.1,9.2-22.6c0.2-8.5-3.1-16.7-9.1-22.7
		C307.2,26.3,299.4,23.2,290.1,23.2z M301.3,67.6c-2.6,3.3-6.4,5-11.2,5c-4.8,0-8.6-1.7-11.3-5c-2.7-3.5-4.2-8-4-12.5
		c-0.1-4.5,1.3-8.9,4-12.5c2.6-3.3,6.4-5.1,11.3-5.1c4.9,0,8.6,1.7,11.2,5.1c2.7,3.5,4.2,8,4,12.5C305.6,59.6,304.1,64.1,301.3,67.6
		z"/>
	<path class="st0" d="M360.8,23.2c-6,0-11.7,2.6-15.5,7.2l-2.1-5.9l-0.2-0.4h-14.4v61.8h17.1V55.5c0-6,1.3-10.5,3.9-13.6
		c2.6-3,6.2-4.6,10.6-4.6c6.2,0,9.6,4.2,9.6,11.7v37h17.1V49C386.8,32.3,377.5,23.2,360.8,23.2z"/>
	<path class="st0" d="M137.1,85.9V44c0-3.5-1.5-20.9-26.1-20.9c-9.8,0-26.1,3.8-26.1,21.2h16.2c0,0-0.3-6.6,9.7-6.6
		c8.9,0,9.7,4.5,9.7,6.1v3.4h-9.3c-18.9,0-29,8-29,21.1c0,10.9,10.1,18.8,24,18.8c5.8,0,11.2-2.5,14.9-7l2.1,5.6l0.2,0.4
		C123.3,85.9,137.1,85.9,137.1,85.9z M116.8,71.8c-2.6,1.8-5.9,2.6-9,2.5c-2.3,0.1-4.6-0.6-6.4-2c-1.5-1.3-2.3-3.1-2.2-5.1
		c0-4.6,3.3-6.8,10.2-7h11.2v4C120.7,67.2,119.2,70.1,116.8,71.8z"/>
	<path class="st0" d="M41.3,17c10.4,0,16.7,6.2,18.9,12.1l0.2,0.4h18.4l-0.2-0.8C74.7,15.3,62.9,0.9,41.3,0.9
		c-11.9,0-22.8,4.6-30,12.5C3.8,21.7,0,31.9,0,44s3.8,22.3,11.3,30.6C18.6,82.4,29.5,87,41.4,87H42c21.2-0.3,32.8-14.5,36.7-27.9
		l0.2-0.8H60.4l-0.2,0.4c-2.2,5.9-8.5,12.1-18.9,12.1h-0.4C34,70.7,27.7,67.9,24,63.1C20,57.9,18,51.5,18,43.9S20,29.8,24,24.6
		C27.8,19.9,34.3,17,41.3,17z"/>
	<path class="st0" d="M183.7,38.5H175c-4.5,0-8.1,1.6-10.6,4.6s-3.9,7.6-3.9,13.6v29.3h-17V24.1h14.4l0.2,0.3l2.1,5.7
		c1.9-2.2,5.9-6,10.7-6h13L183.7,38.5z"/>
	<path class="st0" d="M391.5,20.3c-4.8,0.1-8.6-3.7-8.7-8.5c-0.1-4.8,3.7-8.6,8.5-8.7c4.8-0.1,8.6,3.7,8.7,8.5v0.1
		c0.1,4.7-3.6,8.5-8.3,8.6C391.7,20.3,391.6,20.3,391.5,20.3z M391.5,4.4c-3.9,0-7.1,3.1-7.1,7c0,0.1,0,0.2,0,0.2
		c-0.1,4,2.9,7.3,6.9,7.4c4,0.1,7.3-2.9,7.4-6.9c0-0.2,0-0.4,0-0.5c0.1-3.9-3-7.2-6.9-7.2C391.7,4.4,391.6,4.4,391.5,4.4z
		 M389.9,12.6V16h-1.6V7.1h3.6c1.9,0,3.1,1.1,3.1,2.7c0,1.3-0.9,2.4-2.1,2.6l2.4,3.6h-1.9l-2.3-3.4L389.9,12.6L389.9,12.6z
		 M392.1,8.5h-2.1v2.7h2.1c0.8,0.1,1.5-0.4,1.6-1.2s-0.4-1.5-1.2-1.6C392.4,8.5,392.2,8.5,392.1,8.5L392.1,8.5z"/>
</g>
</svg>
